<?xml version="1.0" encoding="utf-8"?>
<!-- Generator: Adobe Illustrator 17.0.0, SVG Export Plug-In . SVG Version: 6.00 Build 0)  -->
<!DOCTYPE svg PUBLIC "-//W3C//DTD SVG 1.1//EN" "http://www.w3.org/Graphics/SVG/1.1/DTD/svg11.dtd">
<svg version="1.1" xmlns="http://www.w3.org/2000/svg" xmlns:xlink="http://www.w3.org/1999/xlink" x="0px" y="0px" width="132px"
	 height="46px" viewBox="0 0 132 46" enable-background="new 0 0 132 46" xml:space="preserve">
<g id="Layer_2" display="none">
	<rect display="inline" width="132" height="46"/>
</g>
<g id="Layer_1">
	
		<line fill="none" stroke="#808285" stroke-width="0.2759" stroke-miterlimit="22.9256" x1="30.549" y1="29.027" x2="26.738" y2="35.548"/>
	<path fill-rule="evenodd" clip-rule="evenodd" fill="#C657A0" d="M28.178,34.937c0.156,0.796-0.362,1.567-1.157,1.723
		c-0.796,0.157-1.568-0.361-1.724-1.157c-0.157-0.795,0.362-1.567,1.157-1.723C27.25,33.623,28.021,34.141,28.178,34.937
		L28.178,34.937z"/>
	<path fill="none" stroke="#939598" stroke-width="0.1103" stroke-miterlimit="22.9256" d="M55.189,29.978
		c-5.417,1.589-12.624,1.982-19.142,0.772c-9.967-1.85-14.544-6.748-10.223-10.94c3.611-3.503,12.293-5.404,20.866-4.854
		l0.027,0.048c-7.855-0.397-15.774,1.437-19.16,4.722c-4.127,4.003,0.044,8.644,9.316,10.365c6.07,1.127,12.822,0.723,17.918-0.814"
		/>
	<path fill-rule="evenodd" clip-rule="evenodd" fill="#A7A9AC" d="M44.31,15.646c0.963,0,1.907,0.034,2.827,0.099l-0.207-0.366
		c-0.855-0.053-1.73-0.081-2.62-0.081c-9.957,0-18.029,3.425-18.029,7.651c0,4.225,8.072,7.651,18.029,7.651
		c3.888,0,7.488-0.522,10.433-1.41l0.082-0.447c-0.106,0.033-0.502,0.147-0.61,0.179c-2.801,0.838-6.217,1.33-9.905,1.33
		c-9.505,0-17.21-3.27-17.21-7.303C27.1,18.915,34.805,15.646,44.31,15.646L44.31,15.646z"/>
	<path fill-rule="evenodd" clip-rule="evenodd" fill="#808285" d="M49.24,31.156c-4.216,0.494-8.857,0.399-13.193-0.406
		c-9.967-1.85-14.544-6.748-10.223-10.94c3.436-3.334,11.464-5.216,19.621-4.917h0h-0.008c-0.123,0-0.246,0.001-0.369,0.002
		l-0.008,0l-0.008,0l-0.008,0l-0.008,0l-0.098,0.001l-0.008,0l-0.008,0l-0.004,0l-0.008,0l-0.008,0
		c-0.116,0.001-0.232,0.003-0.348,0.005l-0.008,0l-0.008,0l-0.008,0l-0.008,0h-0.001l-0.096,0.002l-0.008,0l-0.008,0l-0.008,0
		h-0.001c-0.134,0.003-0.267,0.006-0.4,0.01l-0.109,0.003l-0.024,0.001c-0.121,0.004-0.241,0.008-0.361,0.013l-0.024,0.001
		l-0.096,0.004l-0.024,0.001c-0.128,0.005-0.256,0.011-0.383,0.018l-0.024,0.001l-0.089,0.005l-0.006,0l-0.02,0.001l-0.006,0
		c-0.115,0.006-0.23,0.012-0.345,0.019l-0.185,0.011c-0.102,0.007-0.204,0.013-0.306,0.02l-0.202,0.015
		c-0.093,0.007-0.187,0.014-0.28,0.022c-0.073,0.006-0.145,0.012-0.218,0.018c-0.096,0.008-0.19,0.016-0.285,0.025l-0.218,0.02
		c-0.097,0.009-0.194,0.019-0.291,0.029l-0.181,0.019c-0.096,0.01-0.191,0.021-0.286,0.031l-0.195,0.022
		c-0.099,0.011-0.197,0.023-0.294,0.035l-0.187,0.023c-0.106,0.013-0.211,0.027-0.316,0.041l-0.155,0.021
		c-0.102,0.014-0.203,0.028-0.305,0.043l-0.163,0.024c-0.101,0.015-0.203,0.031-0.304,0.046l-0.153,0.024
		c-0.103,0.017-0.206,0.034-0.308,0.051l-0.152,0.026c-0.106,0.018-0.212,0.037-0.317,0.056l-0.137,0.025
		c-0.107,0.02-0.213,0.04-0.318,0.06l-0.122,0.024c-0.11,0.022-0.22,0.043-0.329,0.066L36.177,15.8
		c-0.118,0.024-0.235,0.049-0.351,0.074l-0.073,0.016l-0.015,0.003l-0.007,0.001l-0.007,0.001c-0.109,0.024-0.217,0.048-0.325,0.073
		l-0.007,0.001l-0.006,0.001l-0.007,0.001l-0.039,0.009l-0.006,0.002l-0.007,0.001l-0.006,0.001l-0.006,0.001L35.31,15.99
		c-0.11,0.026-0.22,0.052-0.329,0.078l-0.092,0.022c-0.109,0.027-0.216,0.054-0.324,0.081l-0.093,0.024
		c-0.105,0.027-0.209,0.055-0.312,0.083l-0.092,0.025c-0.111,0.03-0.221,0.061-0.331,0.092l-0.069,0.02
		c-0.109,0.031-0.218,0.063-0.326,0.096l-0.07,0.021c-0.11,0.033-0.218,0.067-0.326,0.101l-0.054,0.017
		c-0.108,0.034-0.215,0.069-0.321,0.104l-0.065,0.022c-0.11,0.036-0.219,0.073-0.326,0.111l-0.037,0.013L32.14,16.9l-0.023,0.008
		c-0.093,0.032-0.185,0.065-0.276,0.098l-0.011,0.004l-0.055,0.02l-0.011,0.004l-0.011,0.004c-0.094,0.035-0.188,0.07-0.281,0.105
		l-0.011,0.004l-0.011,0.004l-0.021,0.008l-0.011,0.004l-0.037,0.015l-0.005,0.002c-0.083,0.032-0.164,0.064-0.246,0.096
		l-0.005,0.002l-0.005,0.002l-0.005,0.002l-0.005,0.002l-0.044,0.018l-0.004,0.002l-0.005,0.002
		c-0.096,0.039-0.19,0.078-0.284,0.117l-0.005,0.002l-0.005,0.002l-0.005,0.002l-0.026,0.011l-0.005,0.002l-0.017,0.007
		l-0.005,0.002L30.7,17.455c-0.086,0.036-0.171,0.073-0.255,0.11l-0.005,0.002l-0.005,0.002l-0.005,0.002l-0.005,0.002l-0.005,0.002
		l-0.015,0.006l-0.005,0.002l-0.005,0.002l-0.047,0.021l-0.004,0.002l-0.004,0.002l-0.004,0.002l-0.004,0.002
		c-0.074,0.033-0.146,0.066-0.219,0.099l-0.004,0.002l-0.004,0.002l-0.004,0.002l-0.026,0.012l-0.004,0.002l-0.013,0.006
		l-0.005,0.002l-0.005,0.002l-0.005,0.002l-0.005,0.002c-0.081,0.038-0.162,0.076-0.241,0.115l-0.005,0.002l-0.005,0.002
		l-0.005,0.002l-0.005,0.002l-0.014,0.007l-0.005,0.002l-0.005,0.002l-0.014,0.007l-0.005,0.002l-0.005,0.002
		c-0.085,0.041-0.168,0.083-0.25,0.125l-0.005,0.002l-0.005,0.002l0,0l-0.017,0.009l-0.004,0.002l-0.048,0.025L29.4,18.064
		l-0.004,0.002l-0.004,0.002l-0.004,0.002l-0.004,0.002c-0.067,0.035-0.133,0.069-0.199,0.104l-0.004,0.002l-0.004,0.002
		l-0.004,0.002l-0.004,0.002l-0.008,0.004l-0.004,0.002l-0.004,0.002l-0.049,0.027l-0.004,0.002l-0.004,0.002
		c-0.066,0.036-0.131,0.071-0.195,0.108l-0.004,0.002l-0.004,0.002l-0.004,0.002l-0.004,0.002l-0.004,0.002l-0.004,0.002
		l-0.007,0.004L28.87,18.35l-0.004,0.002l-0.037,0.021l-0.004,0.002l-0.004,0.002c-0.067,0.038-0.133,0.076-0.198,0.115
		l-0.004,0.002l-0.004,0.002L28.612,18.5l-0.004,0.002l-0.019,0.011l-0.004,0.002l-0.012,0.008l-0.004,0.002l-0.004,0.002
		l-0.004,0.002c-0.072,0.043-0.143,0.086-0.213,0.13l-0.004,0.002l-0.004,0.002l-0.004,0.003l-0.004,0.002l-0.008,0.005
		l-0.004,0.002l-0.004,0.002L28.3,18.69l-0.004,0.002l-0.004,0.002c-0.07,0.045-0.14,0.089-0.208,0.134l-0.004,0.003l-0.004,0.002
		l-0.004,0.002l-0.004,0.002l-0.007,0.005l-0.004,0.003l-0.039,0.026l-0.003,0.002l-0.003,0.002L28.01,18.88
		c-0.061,0.041-0.121,0.081-0.18,0.123l-0.001,0.001l-0.003,0.002l-0.003,0.002l-0.003,0.002l-0.003,0.002l-0.003,0.002
		l-0.003,0.002l-0.001,0.001l-0.001,0.001l-0.001,0.001l-0.001,0.001l-0.001,0.001l-0.001,0.001l-0.001,0.001L27.8,19.023
		l-0.002,0.002l-0.001,0.001l-0.001,0.001l-0.016,0.011l-0.001,0.001l-0.001,0.001l-0.001,0.001l-0.001,0.001l-0.001,0.001
		l-0.001,0.001l-0.001,0.001l-0.001,0.001l-0.001,0.001l-0.001,0.001l-0.001,0.001l-0.001,0.001l-0.001,0.001l-0.001,0.001
		l-0.001,0.001l-0.001,0.001l-0.001,0.001l-0.001,0.001l-0.001,0.001l-0.001,0.001l-0.001,0.001l-0.001,0.001l-0.001,0.001
		L27.75,19.06l-0.001,0.001l-0.001,0.001l-0.001,0.001l-0.001,0.001l-0.001,0.001l-0.001,0.001l-0.001,0.001l-0.002,0.002
		l-0.001,0.001l-0.001,0.001l-0.002,0.002l-0.001,0.001l-0.001,0.001l-0.002,0.002l-0.003,0.002l-0.002,0.002l-0.003,0.002
		l-0.002,0.002l-0.002,0.002l-0.003,0.002l-0.002,0.002l-0.003,0.002l-0.002,0.002l-0.002,0.002
		c-0.039,0.027-0.077,0.055-0.115,0.083l-0.002,0.002l-0.002,0.002l-0.002,0.002l-0.002,0.002l-0.002,0.002v0l-0.002,0.002
		l-0.002,0.002l-0.002,0.001l-0.002,0.001l-0.002,0.001l-0.002,0.001l-0.003,0.002l-0.002,0.001l-0.059,0.045L27.5,19.242
		l-0.002,0.001l-0.001,0.001l-0.002,0.001l-0.002,0.001l-0.002,0.001L27.49,19.25l-0.002,0.001l-0.002,0.001l-0.001,0.001
		l-0.002,0.001l-0.002,0.001l-0.003,0.002l-0.002,0.001l-0.002,0.001l-0.003,0.002l-0.002,0.001l-0.002,0.001l-0.002,0.001
		l-0.002,0.002l-0.002,0.001l-0.004,0.003l-0.002,0.002c-0.032,0.025-0.065,0.049-0.097,0.074l-0.002,0.002l-0.002,0.002
		l-0.002,0.002l-0.002,0.002l-0.002,0.001l-0.002,0.002l-0.002,0.001l-0.001,0.001l-0.001,0.001l-0.002,0.002l-0.002,0.001
		l-0.061,0.049l-0.006,0.005l-0.006,0.005l-0.006,0.005l-0.006,0.005l-0.065,0.053l-0.006,0.005l-0.006,0.005l-0.006,0.005
		c-0.026,0.021-0.051,0.042-0.076,0.063l-0.006,0.005c-0.058,0.048-0.114,0.097-0.169,0.146l0,0l-0.006,0.005l-0.001,0.001
		l-0.005,0.004l-0.001,0.001l-0.001,0.001l-0.001,0.001l-0.042,0.038l-0.001,0.001l-0.001,0.001l-0.002,0.002L26.86,19.77
		l-0.001,0.001l-0.001,0.001l-0.001,0.001l-0.001,0.001l-0.001,0.001l-0.001,0.001l-0.001,0.001l-0.001,0.001l-0.001,0.001
		l-0.001,0.001l-0.001,0.001l-0.001,0.001l-0.001,0.001l-0.001,0.001l-0.001,0.001l-0.001,0.001l-0.001,0.001l-0.001,0.001
		l-0.001,0.001l-0.001,0.001l-0.001,0.001l-0.001,0.001l-0.002,0.002l-0.002,0.002l-0.002,0.002l-0.002,0.002l-0.002,0.002
		l-0.002,0.002l-0.002,0.002l-0.002,0.002l-0.002,0.002l-0.002,0.002l-0.002,0.002l-0.002,0.002l-0.002,0.002
		c-0.028,0.025-0.056,0.05-0.082,0.075l-0.002,0.002l-0.002,0.002l-0.002,0.002l-0.002,0.002L26.718,19.9l-0.001,0.001l-0.001,0.001
		l-0.002,0.002l-0.001,0.001l-0.001,0.001l-0.001,0.001l-0.001,0.001l-0.001,0.001l-0.001,0.001l-0.001,0.001l-0.029,0.029
		l-0.001,0.001l-0.001,0.001l-0.003,0.003l-0.001,0.001l-0.001,0.001l-0.001,0.001l-0.002,0.002l-0.001,0.001l-0.001,0.001
		l-0.001,0.001l-0.001,0.001l-0.001,0.001l-0.001,0.001l-0.001,0.001l-0.001,0.001l-0.001,0.001l-0.001,0.001l-0.001,0.001
		l-0.001,0.001l-0.001,0.001l-0.001,0.001l-0.001,0.001l-0.001,0.001l-0.001,0.001l-0.001,0.001l-0.001,0.001l-0.001,0.001
		l-0.001,0.001l-0.002,0.002l-0.002,0.002l-0.002,0.002l-0.002,0.002l-0.002,0.002l-0.002,0.002l-0.002,0.002l-0.002,0.002
		c-0.028,0.027-0.056,0.055-0.083,0.082l-0.002,0.002l-0.004,0.004l-0.002,0.002l-0.002,0.002l-0.002,0.002l-0.002,0.002
		l-0.004,0.004l-0.002,0.002l-0.002,0.002l-0.001,0.001l-0.003,0.003c-0.056,0.057-0.111,0.115-0.164,0.173l-0.003,0.003
		l-0.003,0.003l-0.002,0.002l-0.001,0.001l-0.034,0.039l-0.001,0.001l-0.002,0.002l-0.001,0.001l-0.001,0.001l-0.001,0.001
		l-0.001,0.001l-0.001,0.001l-0.001,0.001l-0.001,0.001l-0.001,0.001l-0.001,0.001l-0.001,0.001l-0.001,0.001l-0.001,0.001
		L26.3,20.333l-0.001,0.001l-0.001,0.001l-0.001,0.001l-0.001,0.001l-0.001,0.001l-0.001,0.001l-0.001,0.001l-0.001,0.001
		l-0.001,0.001l-0.001,0.001l-0.001,0.001l-0.002,0.002l-0.002,0.002l-0.002,0.002l-0.002,0.002l-0.002,0.002l-0.002,0.002
		l-0.002,0.002l-0.002,0.002l-0.002,0.002l-0.002,0.002l-0.002,0.002c-0.026,0.029-0.051,0.057-0.076,0.086l-0.002,0.002
		l-0.002,0.002l-0.002,0.002l-0.002,0.002l-0.002,0.002l-0.001,0.001l-0.001,0.001l-0.002,0.002l-0.002,0.002L26.18,20.47
		l-0.002,0.003c-0.049,0.058-0.096,0.117-0.142,0.176l-0.002,0.003l-0.002,0.003v0l-0.002,0.003l-0.001,0.001
		c-0.047,0.061-0.092,0.122-0.136,0.183l-0.002,0.003l-0.002,0.003l-0.003,0.004c-0.043,0.061-0.085,0.123-0.125,0.185l-0.002,0.003
		l-0.002,0.003l-0.002,0.004c-0.041,0.064-0.08,0.129-0.117,0.194l-0.002,0.003c-0.037,0.065-0.073,0.13-0.106,0.196l-0.002,0.003
		c-0.033,0.066-0.065,0.132-0.094,0.198l-0.001,0.003c-0.028,0.064-0.055,0.129-0.08,0.194l-0.001,0.003l-0.001,0.003l-0.001,0.002
		l-0.001,0.003c-0.024,0.064-0.046,0.127-0.067,0.191l-0.001,0.003l-0.001,0.003l0,0.001l-0.001,0.002l-0.001,0.003l-0.001,0.003
		l-0.001,0.003c-0.02,0.065-0.039,0.129-0.055,0.194l0,0.002l-0.001,0.003c-0.017,0.067-0.032,0.135-0.045,0.203l0,0.001
		c-0.013,0.069-0.024,0.138-0.033,0.208l0,0.001l0,0.003c-0.008,0.066-0.015,0.133-0.019,0.2l0,0.003l0,0.003v0l0,0.003l0,0.003
		c-0.004,0.068-0.006,0.136-0.006,0.205c0,4.529,9.132,8.2,20.396,8.2c0.173,0,0.347-0.001,0.519-0.003l0.008,0l0.009,0
		c0.166-0.002,0.331-0.004,0.496-0.008l0.004,0l0.036-0.001l0.007,0l0.007,0l0.007,0c0.14-0.003,0.28-0.007,0.42-0.011l0.007,0
		l0.007,0l0.007,0l0.077-0.002l0.007,0l0.007,0l0.006,0c0.125-0.004,0.251-0.008,0.376-0.013l0.007,0l0.006,0l0.007,0l0.13-0.005
		l0.002,0l0.006,0l0.012,0l0.006,0c0.117-0.005,0.234-0.01,0.35-0.016l0.006,0l0.002,0l0.119-0.006l0.006,0l0.005,0
		c0.115-0.006,0.23-0.013,0.344-0.019l0.006,0l0.189-0.012l0.004,0l0.004,0l0.004,0l0.004,0l0.004,0
		c0.075-0.005,0.15-0.01,0.224-0.015l0.004,0l0.004,0l0.009-0.001l0.004,0l0.004,0l0.004,0l0.004,0L49.24,31.156L49.24,31.156z
		 M25.348,21.85c-0.024,0.064-0.046,0.127-0.067,0.191L25.348,21.85L25.348,21.85z"/>
	<path fill="none" stroke="#808285" stroke-width="0.2759" stroke-miterlimit="22.9256" d="M40.404,14.984l-0.059-5.93
		 M33.362,16.323L27.589,4.318 M26.477,19.346l-7.208-4.87 M24.744,23.257L5.768,20.806 M26.17,26.208l-10.073,3.9 M41.565,31.169
		l-0.778,7.098"/>
	
		<line fill="none" stroke="#939598" stroke-width="0.2759" stroke-miterlimit="22.9256" x1="54.825" y1="28.742" x2="56.941" y2="36.247"/>
	<path fill-rule="evenodd" clip-rule="evenodd" fill="#00AEEF" d="M54.047,36.191c0.472,1.375,1.97,2.108,3.346,1.635
		c1.377-0.472,2.109-1.97,1.636-3.347c-0.473-1.376-1.969-2.108-3.346-1.636C54.307,33.316,53.576,34.815,54.047,36.191
		L54.047,36.191z"/>
	<path fill-rule="evenodd" clip-rule="evenodd" fill="#FDB813" d="M44.236,41.403c-0.087,2.072-1.839,3.681-3.911,3.593
		c-2.072-0.087-3.678-1.838-3.593-3.911c0.088-2.072,1.837-3.68,3.91-3.593C42.713,37.581,44.323,39.33,44.236,41.403L44.236,41.403
		z"/>
	<path fill-rule="evenodd" clip-rule="evenodd" fill="#ED1C24" d="M23.075,13.171c-0.722-2.106-3.01-3.223-5.114-2.502
		c-2.103,0.722-3.221,3.013-2.499,5.115c0.72,2.102,3.011,3.222,5.114,2.499C22.679,17.561,23.797,15.272,23.075,13.171
		L23.075,13.171z"/>
	<path fill-rule="evenodd" clip-rule="evenodd" fill="#7670B3" d="M6.125,19.178c-0.473-1.378-1.97-2.109-3.346-1.638
		c-1.376,0.473-2.108,1.972-1.635,3.347c0.471,1.376,1.97,2.109,3.346,1.636C5.866,22.051,6.598,20.553,6.125,19.178L6.125,19.178z"
		/>
	<path fill-rule="evenodd" clip-rule="evenodd" fill="#A6CE39" d="M41.983,8.517c-0.319-0.931-1.33-1.424-2.26-1.106
		c-0.929,0.319-1.424,1.332-1.104,2.26c0.318,0.929,1.331,1.424,2.26,1.105C41.808,10.457,42.302,9.446,41.983,8.517L41.983,8.517z"
		/>
	<path fill-rule="evenodd" clip-rule="evenodd" fill="#FCBB72" d="M29.427,4.141c0.28-1.427-0.649-2.811-2.075-3.092
		c-1.429-0.281-2.813,0.649-3.093,2.076c-0.28,1.428,0.649,2.812,2.076,3.092C27.762,6.499,29.147,5.57,29.427,4.141L29.427,4.141z"
		/>
	<path fill-rule="evenodd" clip-rule="evenodd" fill="#00A86D" d="M11.968,30.807c-0.387-1.967,0.894-3.875,2.862-4.262
		c1.969-0.387,3.877,0.895,4.265,2.862c0.385,1.968-0.896,3.877-2.863,4.263C14.262,34.057,12.354,32.776,11.968,30.807
		L11.968,30.807z"/>
	<path fill="#00AEEF" d="M57.084,12.462v14.456h-3.29l-0.009-9.759l-1.307,9.759h-2.303l-1.38-9.54l-0.009,9.54h-3.29V12.462h4.858
		c0.137,0.874,0.286,1.904,0.448,3.08l0.533,3.67l0.856-6.75H57.084L57.084,12.462z M67.352,23.537c0,1.075-0.14,1.849-0.42,2.318
		c-0.277,0.472-0.704,0.765-1.27,0.883c-0.57,0.119-1.474,0.18-2.717,0.18h-4.347V12.462h7.365v2.504h-3.6v2.449h0.582
		c1.158,0,2.038,0.067,2.632,0.204c0.594,0.137,1.039,0.439,1.334,0.908c0.296,0.466,0.442,1.2,0.442,2.199V23.537L67.352,23.537z
		 M63.587,23.101v-2.09c0-0.609-0.061-0.978-0.183-1.109c-0.122-0.131-0.469-0.204-1.042-0.222v4.752
		c0.478,0,0.801-0.061,0.969-0.183C63.502,24.128,63.587,23.744,63.587,23.101L63.587,23.101z M75.168,12.462l2.15,14.456h-3.841
		l-0.204-2.595h-1.355l-0.204,2.595h-3.89l1.907-14.456H75.168L75.168,12.462z M73.173,21.764c-0.18-1.639-0.369-3.667-0.57-6.089
		c-0.372,2.778-0.606,4.807-0.707,6.089H73.173L73.173,21.764z M87.139,26.918h-3.765V15.349h-1.097v8.185
		c0,1.078-0.14,1.852-0.417,2.321c-0.28,0.472-0.701,0.765-1.264,0.883c-0.567,0.119-1.465,0.18-2.702,0.18h-0.588v-2.486
		c0.46,0,0.774-0.058,0.947-0.171c0.174-0.113,0.259-0.5,0.259-1.161v-10.64h8.626V26.918L87.139,26.918z"/>
	<path fill="#ED1C24" d="M131.024,27.456h-81.39l-0.879-5.352l-1.994,4.693l-1.224-0.066l-1.497,2.204l-1.382-2.365l-0.887-0.053
		l-1.193-3.347l-0.98,3.156l-0.009-0.004l-0.582,4.89L38.065,16.56l-0.295,0.148L37.1,28.759l-1.132-2.82l-0.435-0.017l-0.599-2.394
		l-0.511,2.403l-3.112-0.116l-0.031-0.023l-0.19,2.814l-0.309-8.444l-0.103,0.053l-0.236,7.079l-0.417-1.656l-0.16-0.006
		l-0.237-1.487l-0.203,1.517l-1.393-0.052v0.193l1.442,0.09l0.161-1.149l0.176,1.147l0.173,0.011l0.528,2.131l0.217-6.377
		l0.335,9.065l0.307-4.583l3.175,0.206l0.4-1.84l0.44,1.829l0.463,0.034l1.458,3.66l0.617-10.845l0.949,15.326
		c0.03,0.015,0.056,0.068,0.065,0.103l1.012-8.191h-0.008l0.675-1.903l0.871,2.589l0.922,0.074l1.631,2.831l1.845-2.533l1.302,0.109
		l1.568-2.387l0.522,2.782h81.747V27.456L131.024,27.456z"/>
	<g>
		<path fill="#00AEEF" d="M93.582,26.923V12.501h3.556c1.289,0,2.296,0.108,3.022,0.325c0.729,0.217,1.266,0.638,1.607,1.263
			c0.344,0.626,0.514,1.558,0.514,2.798c0,1.287-0.247,2.327-0.738,3.122c-0.494,0.794-1.415,1.191-2.764,1.191h-1.877v5.721H93.582
			z M96.902,15.065v3.574h0.832c0.517,0,0.849-0.129,1.002-0.389c0.149-0.258,0.224-0.736,0.224-1.435
			c0-0.805-0.118-1.299-0.35-1.479c-0.235-0.181-0.677-0.27-1.329-0.27H96.902z"/>
		<path fill="#00AEEF" d="M112.823,12.501l-3.737,12.418c-0.228,0.794-0.639,1.366-1.227,1.715c-0.59,0.349-1.396,0.524-2.419,0.524
			h-0.307c-0.264,0-0.505-0.019-0.722-0.055v-2.636c0.073,0.085,0.331,0.126,0.776,0.126h0.217c0.192,0,0.357-0.056,0.496-0.171
			c0.138-0.115,0.208-0.274,0.208-0.478c0-0.109-0.024-0.247-0.073-0.416l-3.302-11.028h3.411l1.787,7.383h0.055l1.462-7.383
			H112.823z"/>
		<path fill="#00AEEF" d="M113.364,22.988v-6.552c0-0.914,0.176-1.681,0.532-2.301c0.354-0.62,0.854-1.086,1.498-1.399
			c0.643-0.312,1.392-0.469,2.247-0.469c0.854,0,1.603,0.157,2.247,0.469c0.643,0.314,1.142,0.779,1.498,1.399
			c0.354,0.62,0.532,1.387,0.532,2.301v1.336h-3.322v-1.624c0-0.878-0.319-1.317-0.956-1.317c-0.639,0-0.957,0.439-0.957,1.317
			v7.129c0,0.878,0.319,1.317,0.957,1.317c0.637,0,0.956-0.439,0.956-1.317v-2.111h3.322v1.822c0,0.842-0.172,1.577-0.515,2.203
			s-0.839,1.109-1.488,1.452c-0.65,0.343-1.409,0.515-2.274,0.515c-1.312,0-2.353-0.373-3.122-1.119
			C113.749,25.293,113.364,24.275,113.364,22.988z"/>
		<path fill="#00AEEF" d="M123.399,26.923V12.501h7.381v2.78h-4.061v2.87h3.556v2.78h-3.556v3.213h4.223v2.78H123.399z"/>
	</g>
</g>
</svg>
